<?xml version="1.0" encoding="utf-8"?>
<!-- Generator: Adobe Illustrator 19.2.1, SVG Export Plug-In . SVG Version: 6.00 Build 0)  -->
<svg version="1.1" id="Layer_1" xmlns="http://www.w3.org/2000/svg" xmlns:xlink="http://www.w3.org/1999/xlink" x="0px" y="0px"
	 width="400px" height="400px" viewBox="0 0 400 400" style="enable-background:new 0 0 400 400;" xml:space="preserve">
<style type="text/css">
	.st0{fill:#FFFFFF;}
</style>
<g>
	<path class="st0" d="M367,120c0.5-0.5,1.1-1,1.6-1.5l21.8-21.8c12.9-12.9,12.9-33.8,0-46.7L349.9,9.7c-12.9-12.9-33.8-12.9-46.7,0
		l-21.8,21.8c-0.5,0.5-1,1.1-1.5,1.6L367,120z"/>
	<polygon class="st0" points="58.3,341.7 101.3,384.7 50.7,392.3 0,400 7.7,349.3 15.3,298.7 	"/>
	<polygon class="st0" points="293.1,69.5 63,299.7 50.5,287.3 280.7,57.1 268.3,44.7 25.7,287.3 112.7,374.3 355.3,131.7 	"/>
</g>
</svg>
